<?xml version="1.0" encoding="UTF-8" standalone="no"?>
<svg
   width="4.1010418mm"
   height="5.68854mm"
   version="1.1"
   id="svg8"
   sodipodi:docname="mouse-minimalistic-linear.svg"
   xmlns:inkscape="http://www.inkscape.org/namespaces/inkscape"
   xmlns:sodipodi="http://sodipodi.sourceforge.net/DTD/sodipodi-0.dtd"
   xmlns="http://www.w3.org/2000/svg"
   xmlns:svg="http://www.w3.org/2000/svg">
  <defs
     id="defs12" />
  <sodipodi:namedview
     id="namedview10"
     pagecolor="#ffffff"
     bordercolor="#000000"
     borderopacity="0.25"
     inkscape:showpageshadow="2"
     inkscape:pageopacity="0.0"
     inkscape:pagecheckerboard="0"
     inkscape:deskcolor="#d1d1d1"
     showgrid="false"
     inkscape:document-units="mm" />
  <g
     fill="none"
     stroke="currentColor"
     stroke-width="1.5"
     id="g6"
     transform="translate(-4.25,-1.250003)">
    <path
       d="m 5,9 a 7,7 0 0 1 14,0 v 6 A 7,7 0 1 1 5,15 Z"
       id="path2"
       style="fill:#ffffff" />
    <path
       stroke-linecap="round"
       d="M 12,5 V 8"
       id="path4" />
    <path
       style="fill:#ffffff;stroke:#2bb095;stroke-width:0.0401642"
       d="M 7.149222,19.959728 C 6.1117941,19.844437 5.1401447,19.498919 4.3243422,18.9552 2.8744517,17.988871 1.9125364,16.520753 1.601076,14.798827 L 1.5396265,14.459101 V 10.750609 7.0421176 L 1.6024529,6.6940281 C 1.8413716,5.3703017 2.4611603,4.2035669 3.416678,3.2788008 3.9320193,2.7800448 4.4045275,2.4496648 5.0472972,2.1386642 5.635027,1.8542943 6.1964045,1.6795883 6.8546848,1.5761879 c 0.4267137,-0.067027 1.3610766,-0.066757 1.7939995,5.174e-4 1.5322227,0.2381018 2.9028727,1.007717 3.8841507,2.1809374 0.769793,0.9203677 1.245233,2.0133314 1.403137,3.2256001 0.06157,0.4727194 0.06157,7.0620132 0,7.5347322 -0.189508,1.454896 -0.840235,2.743075 -1.889795,3.741033 -0.937724,0.891619 -2.1097245,1.465034 -3.3974927,1.66226 -0.3384029,0.05183 -1.1840083,0.07352 -1.4994623,0.03846 z M 8.0911417,7.4316859 C 8.2491408,7.3502332 8.3460178,7.2542476 8.4302783,7.0956698 L 8.5014157,6.9617892 V 5.248118 3.5344468 L 8.4424493,3.4242238 C 8.3518387,3.2548496 8.2646554,3.1644177 8.108683,3.0780199 7.9835405,3.0086998 7.9394199,2.9989886 7.7516845,2.9994423 7.5725293,2.9998752 7.5155672,3.0115163 7.4035951,3.0705798 7.2453558,3.1540485 7.1515299,3.2492397 7.0651456,3.4139543 l -0.063192,0.1204925 -0.00748,1.6572473 c -0.00869,1.9243863 -0.015715,1.857494 0.2198534,2.0930624 0.097676,0.097676 0.182646,0.1549073 0.2726847,0.1836654 0.1797306,0.057406 0.4538535,0.040737 0.6041331,-0.036736 z"
       id="path460"
       transform="translate(4.25,1.250003)" />
  </g>
</svg>
