<?xml version="1.0" encoding="UTF-8" standalone="no"?>
<svg
   width="56.015705"
   height="64"
   version="1.1"
   id="svg4"
   xmlns="http://www.w3.org/2000/svg"
   xmlns:svg="http://www.w3.org/2000/svg">
  <defs
     id="defs8" />
  <g
     id="g845"
     transform="scale(0.12475658)">
    <path
       fill="currentColor"
       d="m 106.1,83.7 v 86.177 a 115.52,115.52 0 0 0 -22.4,-2.176 c -47.914,0 -83.2,35.072 -83.2,92 0,45.314 48.537,57.002 78.784,75.707 12.413,7.735 23.317,16.994 33.253,25.851 l 0.146,0.131 0.148,0.129 c 17.476,15.319 23.669,23.217 23.669,30.181 v 2.679 c -4.952,5.747 -8,13.536 -8,22.12 v 64 c 0,17.673 12.894,32 28.8,32 h 230.4 c 15.906,0 28.8,-14.327 28.8,-32 v -64 c 0,-8.584 -3.048,-16.373 -8,-22.12 V 391.7 c 0,-28.688 40,-67.137 40,-127.2 v -21.299 c 0,-62.542 -38.658,-98.8 -91.145,-99.94 C 339.542,130.779 316.57,124.77 294.564,127.276 A 93.148,93.148 0 0 0 272.5,119.347 V 83.7 c 0,-45.435 -37.584,-83.2 -83.2,-83.2 -45.099,0 -83.2,38.101 -83.2,83.2 z m 118.4,0 v 91.026 c 14.669,-12.837 42.825,-14.415 61.05,4.95 19.646,-11.227 45.624,-1.687 53.625,12.925 39.128,-6.524 61.325,10.076 61.325,50.6 V 264.5 c 0,45.491 -35.913,77.21 -39.676,120 H 184.071 C 181.107,359.261 162.849,341.534 144.475,325.425 131.825,314.15 119.175,303.7 104.6,294.626 81.212,280.145 48.5,268.494 48.5,259.7 c 0,-23.375 8.8,-44 35.2,-44 35.2,0 53.075,26.4 70.4,26.4 V 83.7 c 0,-18.425 16.5,-35.2 35.2,-35.2 18.975,0 35.2,16.225 35.2,35.2 z m 128,340.8 c 13.255,0 24,10.745 24,24 0,13.255 -10.745,24 -24,24 -13.255,0 -24,-10.745 -24,-24 0,-13.255 10.745,-24 24,-24 z"
       id="path2"
       style="fill:#000000;fill-opacity:1;stroke:#b02b2b;stroke-opacity:1" />
    <path
       style="fill:#ffffff;fill-opacity:1;stroke:#2bb095;stroke-width:0.576772;stroke-opacity:1"
       d="m 184.4676,381.60193 c -0.87436,-5.20613 -2.83529,-11.23282 -5.41985,-16.65726 -6.44503,-13.52672 -15.24315,-23.69626 -36.80723,-42.54458 -12.59195,-11.00613 -20.48593,-17.21656 -30.42357,-23.93514 -9.81553,-6.63602 -12.450202,-8.13329 -32.45951,-18.44654 -18.735571,-9.65675 -24.962927,-13.40077 -28.141973,-16.9196 l -2.139724,-2.36842 0.375393,-5.72821 c 1.896328,-28.93661 17.422655,-42.04394 44.584873,-37.63856 11.266791,1.82734 19.795551,5.41241 35.495811,14.9207 5.61926,3.4031 11.84839,6.92264 13.84252,7.8212 3.30338,1.48852 8.49504,2.927 10.5639,2.927 0.71137,0 0.84683,-11.40903 0.98096,-82.62255 l 0.15563,-82.622555 1.28767,-3.556745 c 6.42651,-17.751025 23.93994,-28.103574 40.47098,-23.923225 12.09118,3.057602 21.64034,12.271025 25.79129,24.884497 0.96756,2.940093 1.05823,6.747535 1.239,52.027028 l 0.19505,48.85479 2.66392,-2.03342 c 3.73781,-2.85313 8.57399,-5.18537 13.83014,-6.66953 6.13685,-1.73286 16.38831,-1.73984 22.74944,-0.0155 7.11704,1.92925 15.95905,6.95151 20.28394,11.52129 l 1.62165,1.71347 4.38794,-1.90751 c 11.32479,-4.92309 25.54912,-3.78186 37.07753,2.97476 3.61584,2.11919 8.94933,6.97118 11.24438,10.22924 1.14692,1.62818 1.14837,1.62848 4.89627,1.01371 5.33135,-0.87449 18.17784,-0.76876 23.16433,0.19066 9.02026,1.73552 14.64487,4.63392 20.73485,10.68478 3.56707,3.54417 4.88844,5.38957 7.04685,9.84145 4.69662,9.68713 6.15307,19.19389 6.15389,40.16873 10e-4,28.99516 -2.50647,38.20072 -20.48083,75.18562 -5.16464,10.62702 -10.56731,22.31702 -12.00594,25.97778 -2.89659,7.37069 -5.7155,17.49888 -6.77593,24.34556 l -0.69233,4.46998 h -87.56404 -87.56403 l -0.36325,-2.16289 z"
       id="path4694" />
    <path
       style="fill:#ffffff;fill-opacity:1;stroke:#2bb095;stroke-width:0.576772;stroke-opacity:1"
       d="m 344.35111,470.05592 c -6.6035,-2.77981 -10.00085,-6.00202 -12.93755,-12.27057 -1.40488,-2.99882 -1.57689,-4.02808 -1.57689,-9.43574 0,-5.69184 0.11758,-6.3085 1.88842,-9.90415 7.08523,-14.38641 25.82945,-17.50096 37.15647,-6.17393 11.29939,11.29938 7.72196,30.55407 -6.93304,37.31553 -2.64734,1.22142 -4.32103,1.54609 -8.75259,1.69789 -4.77739,0.16365 -5.91048,0.006 -8.84482,-1.22903 z"
       id="path5499" />
  </g>
</svg>
